<?xml version="1.0" standalone="no"?>
<!DOCTYPE svg PUBLIC "-//W3C//DTD SVG 20010904//EN"
 "http://www.w3.org/TR/2001/REC-SVG-20010904/DTD/svg10.dtd">
<svg version="1.0" xmlns="http://www.w3.org/2000/svg"
 width="464.000000pt" height="463.000000pt" viewBox="0 0 464.000000 463.000000"
 preserveAspectRatio="xMidYMid meet">

<g transform="translate(0.000000,463.000000) scale(0.100000,-0.100000)"
fill="#000000" stroke="none">
<path d="M0 2315 l0 -2315 2320 0 2320 0 0 2315 0 2315 -2320 0 -2320 0 0
-2315z m2330 2255 c0 -11 -4 -20 -10 -20 -5 0 -10 9 -10 20 0 11 5 20 10 20 6
0 10 -9 10 -20z m-390 -41 c0 -11 -4 -17 -10 -14 -5 3 -10 15 -10 26 0 11 5
17 10 14 6 -3 10 -15 10 -26z m780 11 c0 -11 -4 -20 -9 -20 -5 0 -7 9 -4 20 3
11 7 20 9 20 2 0 4 -9 4 -20z m-175 -36 c529 -60 989 -284 1356 -660 309 -319
511 -710 589 -1149 31 -172 38 -475 16 -653 -33 -257 -94 -457 -211 -697 -315
-645 -907 -1085 -1625 -1207 -184 -31 -523 -31 -700 1 -342 61 -606 166 -875
347 -462 311 -782 772 -913 1315 -48 196 -57 283 -56 524 0 243 16 368 74 578
148 532 504 1002 975 1289 287 175 624 286 960 317 98 9 310 6 410 -5z m-985
-82 c0 -7 -4 -10 -10 -7 -5 3 -10 16 -10 28 0 18 2 19 10 7 5 -8 10 -21 10
-28z m1540 7 c-7 -11 -14 -19 -16 -16 -7 7 7 37 17 37 6 0 5 -9 -1 -21z
m-1896 -178 c-6 -6 -24 19 -24 34 1 6 7 1 15 -9 8 -11 12 -22 9 -25z m2253 14
c-4 -8 -11 -15 -17 -15 -6 0 -6 7 2 20 14 22 24 19 15 -5z m-2577 -220 c20
-24 6 -28 -15 -5 -10 11 -13 20 -8 20 6 0 16 -7 23 -15z m2910 6 c0 -5 -7 -14
-15 -21 -12 -10 -15 -10 -15 2 0 8 3 18 7 21 9 10 23 9 23 -2z m-3190 -286 c7
-8 8 -15 2 -15 -5 0 -15 7 -22 15 -7 8 -8 15 -2 15 5 0 15 -7 22 -15z m3460 0
c-7 -8 -17 -15 -22 -15 -6 0 -5 7 2 15 7 8 17 15 22 15 6 0 5 -7 -2 -15z
m-3673 -331 c-7 -7 -37 7 -37 17 0 6 9 5 21 -1 11 -7 19 -14 16 -16z m3895 4
c-6 -6 -15 -8 -19 -4 -4 4 -1 11 7 16 19 12 27 3 12 -12z m-4078 -344 c23 -9
20 -23 -4 -17 -11 3 -20 9 -20 14 0 11 3 11 24 3z m4256 -4 c0 -5 -10 -10 -22
-10 -19 0 -20 2 -8 10 19 13 30 13 30 0z m-4350 -380 c12 -8 11 -10 -7 -10
-13 0 -23 5 -23 10 0 13 11 13 30 0z m4450 0 c0 -5 -10 -10 -22 -9 -22 0 -22
1 -3 9 11 5 21 9 23 9 1 1 2 -3 2 -9z m-4477 -397 c-7 -2 -21 -2 -30 0 -10 3
-4 5 12 5 17 0 24 -2 18 -5z m4510 0 c-7 -2 -21 -2 -30 0 -10 3 -4 5 12 5 17
0 24 -2 18 -5z m-4473 -387 c0 -2 -9 -6 -20 -9 -11 -3 -20 -1 -20 4 0 5 9 9
20 9 11 0 20 -2 20 -4z m4446 -5 c-3 -5 -15 -7 -26 -4 -28 7 -25 13 6 13 14 0
23 -4 20 -9z m-4356 -381 c-19 -12 -30 -12 -30 -1 0 10 31 20 40 14 2 -2 -2
-8 -10 -13z m4234 14 c23 -9 20 -23 -4 -17 -11 3 -20 9 -20 14 0 11 3 11 24 3z
m-4068 -369 c-21 -16 -32 -13 -21 4 3 6 14 11 23 11 15 -1 15 -2 -2 -15z
m3909 4 c11 -17 -1 -21 -15 -4 -8 9 -8 15 -2 15 6 0 14 -5 17 -11z m-3685
-324 c-7 -8 -17 -15 -22 -15 -6 0 -5 7 2 15 7 8 17 15 22 15 6 0 5 -7 -2 -15z
m3460 5 c8 -5 11 -12 7 -16 -4 -4 -15 0 -24 9 -18 18 -8 23 17 7z m-3170 -268
c0 -10 -22 -32 -32 -32 -5 0 -3 9 4 20 13 20 28 27 28 12z m2888 -4 c7 -7 12
-16 12 -20 0 -15 -15 -8 -28 12 -13 22 -3 27 16 8z m-2578 -239 c-7 -11 -14
-19 -16 -16 -7 7 7 37 17 37 6 0 5 -9 -1 -21z m2257 6 c9 -24 -1 -27 -15 -5
-8 13 -8 20 -2 20 6 0 13 -7 17 -15z m-1906 -178 c-8 -8 -11 -7 -11 4 0 20 13
34 18 19 3 -7 -1 -17 -7 -23z m1553 -6 c-6 -6 -24 19 -24 34 1 6 7 1 15 -9 8
-11 12 -22 9 -25z m-1173 -104 c-8 -8 -11 -5 -11 9 0 27 14 41 18 19 2 -9 -1
-22 -7 -28z m788 16 c0 -25 -1 -26 -9 -8 -12 27 -12 35 0 35 6 0 10 -12 9 -27z
m-389 -28 c0 -14 -4 -25 -10 -25 -11 0 -14 33 -3 43 11 11 13 8 13 -18z"/>
<path d="M2030 4480 c-627 -82 -1177 -428 -1537 -966 -77 -114 -170 -297 -222
-435 -47 -124 -104 -355 -122 -489 -19 -135 -16 -429 4 -577 86 -620 443
-1185 967 -1529 515 -337 1129 -441 1736 -294 210 51 484 172 674 298 517 344
860 883 957 1504 21 139 24 479 5 613 -85 591 -396 1117 -867 1465 -461 341
-1020 485 -1595 410z m304 -6 c9 -3 16 -14 16 -24 0 -23 13 -27 130 -35 593
-42 1171 -359 1529 -840 479 -642 554 -1490 196 -2205 -204 -407 -525 -731
-932 -938 -597 -305 -1329 -301 -1923 10 -541 284 -932 782 -1079 1378 -90
365 -73 789 48 1150 183 546 546 967 1056 1225 142 72 278 122 470 173 118 31
140 40 137 54 -2 12 5 21 22 28 55 21 293 38 330 24z"/>
<path d="M2363 4403 c-8 -3 -12 -57 -13 -181 -1 -97 -3 -249 -4 -337 -2 -105
1 -163 8 -167 6 -4 27 -8 46 -8 70 0 237 -31 335 -61 549 -169 941 -662 981
-1232 l7 -97 43 0 c24 0 44 -4 44 -10 0 -5 -19 -10 -43 -10 l-43 0 -12 -122
c-33 -337 -162 -608 -402 -849 -172 -173 -340 -276 -564 -348 -105 -34 -244
-61 -311 -61 -23 0 -56 -3 -73 -6 -28 -6 -31 -11 -35 -48 l-4 -41 -1 42 c-2
47 4 45 -165 58 -271 21 -585 168 -806 380 -245 234 -389 535 -423 877 l-11
118 -39 0 c-21 0 -38 5 -38 10 0 6 18 10 40 10 l40 0 0 53 c0 73 26 240 49
317 38 129 105 285 152 352 28 38 23 41 -11 6 -17 -17 -33 -28 -37 -25 -11 11
39 77 58 77 10 0 28 9 39 20 22 22 27 45 8 35 -7 -4 -2 3 12 15 14 12 73 67
131 123 58 56 145 131 195 166 85 60 317 181 349 181 8 0 15 5 15 12 0 6 -3 8
-6 5 -4 -4 -19 2 -33 12 -14 10 -47 24 -73 32 -27 7 -48 17 -48 22 0 4 5 5 10
2 6 -3 10 -2 10 3 0 6 -7 12 -15 16 -18 7 -20 46 -2 46 6 0 36 12 66 25 56 26
95 61 85 77 -3 4 0 7 7 6 21 -5 21 22 0 30 -19 7 -21 10 -21 32 0 6 -3 9 -7 9
-5 -1 -21 -1 -36 0 l-28 1 28 35 c15 19 26 36 23 38 -3 1 9 16 25 32 29 29 45
95 23 95 -5 0 -7 4 -4 9 3 4 -1 17 -8 27 -13 17 -11 22 17 46 17 16 35 28 39
28 5 0 7 4 4 9 -4 5 -2 11 4 13 15 5 21 48 7 48 -7 0 -6 4 3 10 23 15 2 13
-110 -10 -243 -49 -537 -185 -759 -350 -474 -351 -775 -873 -841 -1458 -17
-149 -8 -449 18 -592 148 -814 744 -1458 1540 -1666 188 -48 281 -59 527 -59
195 0 248 4 351 22 440 82 819 278 1123 582 328 328 539 756 602 1221 20 148
16 430 -9 585 -73 453 -282 858 -609 1176 -273 265 -588 442 -953 534 -144 36
-427 71 -467 58z m-1212 -934 c-25 -20 -37 -19 -28 3 2 8 15 14 28 15 l24 2
-24 -20z m-71 -79 c0 -5 -7 -10 -16 -10 -8 0 -12 5 -9 10 3 6 10 10 16 10 5 0
9 -4 9 -10z"/>
<path d="M1795 3720 c-3 -5 -1 -10 4 -10 6 0 11 5 11 10 0 6 -2 10 -4 10 -3 0
-8 -4 -11 -10z"/>
<path d="M1866 3701 c-3 -4 2 -15 12 -24 14 -13 19 -13 29 -2 15 16 0 30 -19
19 -7 -4 -8 -3 -4 4 4 7 3 12 -3 12 -5 0 -12 -4 -15 -9z"/>
<path d="M2347 3694 c-3 -3 -6 -83 -7 -177 -1 -95 -2 -237 -4 -317 -1 -80 -1
-151 2 -157 2 -7 17 -13 32 -13 95 0 263 -60 365 -130 126 -87 233 -237 281
-395 25 -83 26 -285 1 -375 -55 -202 -196 -372 -383 -461 -283 -135 -606 -81
-821 137 -195 199 -261 492 -168 755 14 41 27 78 28 84 1 5 10 18 20 29 9 11
17 25 17 30 0 7 -4 6 -8 -1 -4 -7 -18 -14 -31 -16 -12 -2 -27 -10 -31 -17 -10
-17 -69 -21 -71 -5 -1 5 -2 18 -2 27 0 10 -8 20 -18 23 -21 7 -26 25 -6 25 6
1 2 9 -10 19 -12 10 -19 22 -15 27 4 5 -5 -2 -20 -15 -25 -22 -26 -25 -12 -46
14 -22 14 -23 -4 -18 -20 5 -38 53 -20 53 5 0 6 5 3 10 -14 22 -14 70 -1 70 8
0 16 6 19 13 4 10 -3 12 -26 9 -21 -3 -34 1 -43 12 -7 10 -18 16 -26 15 -28
-3 -36 2 -31 20 3 13 12 18 25 16 14 -3 17 -1 10 8 -6 7 -9 31 -7 54 2 24 -1
41 -5 38 -5 -3 -11 -1 -15 5 -3 6 4 10 16 10 l22 0 -21 19 c-12 10 -20 20 -17
23 3 2 -10 2 -28 0 -29 -5 -31 -3 -18 12 8 9 9 16 3 16 -6 0 -14 -4 -17 -10
-7 -12 -26 -14 -24 -2 4 27 -2 44 -13 35 -7 -5 -24 -10 -38 -11 -36 -2 -70
-48 -144 -197 -89 -178 -140 -368 -145 -535 l-2 -70 50 0 c28 0 51 -4 51 -10
0 -5 -23 -10 -52 -10 l-51 0 6 -102 c8 -122 38 -260 77 -353 5 -11 22 -52 38
-92 65 -158 191 -337 326 -460 230 -211 539 -344 833 -360 l102 -6 4 49 3 49
2 -47 2 -48 63 0 c143 0 400 66 547 140 181 92 393 274 510 438 68 95 157 270
190 372 28 88 57 237 65 338 l7 82 -46 0 c-25 0 -46 5 -46 10 0 6 20 10 45 10
52 0 50 -8 34 138 -61 563 -451 1029 -994 1187 -120 35 -341 65 -358 49z
m-1201 -749 c-3 -8 -1 -15 4 -15 17 0 -1 -28 -21 -33 -16 -4 -17 -2 -8 14 5
10 7 19 3 19 -3 0 -1 7 6 15 7 8 15 15 17 15 3 0 3 -7 -1 -15z"/>
<path d="M1845 3611 c-181 -63 -341 -164 -483 -308 -57 -57 -101 -107 -97
-111 4 -4 15 3 25 15 9 12 21 19 25 15 5 -4 5 -2 2 5 -8 14 21 46 34 38 5 -4
9 -1 9 5 0 8 18 9 58 4 31 -3 63 -7 70 -7 6 0 12 -6 12 -13 0 -7 6 -15 13 -18
6 -3 1 -4 -13 -1 -14 3 -19 2 -12 -1 6 -3 9 -11 6 -16 -4 -7 -2 -8 4 -4 18 11
37 -4 21 -15 -9 -6 4 -7 32 -4 36 5 54 2 80 -14 19 -12 32 -21 29 -22 -3 0
-13 -2 -23 -4 -9 -2 -15 1 -12 5 3 5 1 11 -5 15 -5 3 -10 -1 -10 -10 0 -11 -6
-14 -25 -9 -17 4 -27 1 -31 -9 -4 -11 -16 -14 -47 -10 -23 2 -44 6 -48 8 -3 3
-15 -3 -25 -11 -10 -9 -14 -13 -8 -10 7 3 14 0 17 -8 3 -8 18 -12 41 -11 39 3
45 -5 21 -25 -9 -7 -15 -8 -15 -2 0 10 -25 11 -35 0 -9 -9 44 -20 58 -11 10 6
27 8 85 12 7 1 11 5 7 11 -3 5 -13 6 -23 3 -9 -3 -14 -3 -10 2 14 15 98 18
114 4 20 -17 84 -20 78 -5 -2 6 -19 12 -36 13 -18 0 -34 6 -36 12 -2 6 -7 9
-11 7 -4 -3 -13 -1 -21 5 -11 6 -6 9 18 9 18 0 31 4 27 9 -8 15 25 28 68 26
20 0 37 0 37 2 0 1 -16 10 -35 19 -36 17 -43 28 -25 39 11 7 51 15 82 18 13 1
14 4 6 14 -8 10 -5 13 11 13 12 0 19 5 16 10 -3 6 -1 10 5 10 6 0 9 4 5 9 -3
5 0 13 6 17 9 5 7 11 -6 21 -11 7 -15 13 -9 14 5 1 20 2 34 2 15 1 24 7 22 15
-1 8 2 11 8 7 5 -3 10 -1 10 5 0 6 5 8 10 5 6 -3 10 -2 10 4 0 5 8 12 18 15
20 7 27 72 10 94 -7 7 -12 35 -12 62 -1 38 2 46 11 38 10 -8 13 -6 13 5 0 14
-29 27 -60 26 -8 0 -51 -12 -95 -28z m-265 -471 c0 -5 -2 -10 -4 -10 -3 0 -8
5 -11 10 -3 6 -1 10 4 10 6 0 11 -4 11 -10z"/>
<path d="M1970 3350 c0 -6 7 -10 15 -10 8 0 15 2 15 4 0 2 -7 6 -15 10 -8 3
-15 1 -15 -4z"/>
<path d="M1924 3312 c4 -3 14 -7 22 -8 9 -1 13 0 10 4 -4 3 -14 7 -22 8 -9 1
-13 0 -10 -4z"/>
<path d="M1766 3154 c-18 -17 -21 -28 -6 -19 5 3 19 1 30 -5 16 -9 18 -8 14 5
-4 8 -10 15 -16 15 -5 0 -6 5 -3 10 9 15 -2 12 -19 -6z"/>
<path d="M1417 3090 c-9 -11 -13 -20 -8 -20 11 0 35 29 29 35 -2 2 -12 -4 -21
-15z"/>
<path d="M1780 3059 c0 -5 5 -7 10 -4 6 3 10 8 10 11 0 2 -4 4 -10 4 -5 0 -10
-5 -10 -11z"/>
<path d="M1886 3061 c-3 -5 -16 -7 -29 -5 -20 4 -20 4 -2 -5 11 -5 25 -5 31 0
6 5 15 5 19 1 5 -4 5 -1 1 6 -9 14 -13 15 -20 3z"/>
<path d="M1808 3030 c-2 -6 -13 -12 -24 -12 -14 -2 -20 -9 -20 -23 2 -28 15
-47 28 -39 7 4 6 9 -2 14 -8 5 -7 9 4 13 9 4 16 3 16 -2 0 -5 8 -8 18 -7 9 0
16 -3 15 -9 -1 -5 10 -10 23 -10 13 0 24 3 24 7 0 3 10 4 22 0 19 -5 20 -4 7
10 -10 12 -18 13 -27 5 -10 -8 -19 -4 -38 16 -13 15 -24 30 -23 34 1 12 -19
15 -23 3z"/>
<path d="M2085 3021 c-3 -5 -1 -12 4 -15 13 -8 42 4 35 15 -7 12 -31 12 -39 0z"/>
<path d="M2335 3006 c-7 -22 -14 -559 -8 -627 l6 -68 46 -4 46 -3 -47 -2 -48
-2 -2 -47 -1 -48 -6 45 c-6 45 -6 45 -51 51 l-45 6 48 1 49 2 -7 43 c-24 158
-58 307 -77 333 -17 23 -47 125 -41 139 3 9 -1 22 -8 31 -14 17 -17 27 -23 88
-3 21 -7 40 -9 43 -8 7 -89 -18 -142 -44 -72 -36 -77 -42 -59 -60 14 -14 11
-19 -23 -52 -41 -38 -79 -91 -75 -103 1 -5 -7 -8 -18 -8 -11 0 -20 -4 -20 -10
0 -5 -7 -10 -16 -10 -10 0 -14 5 -10 15 4 13 2 14 -14 5 -11 -6 -20 -15 -20
-20 0 -6 -5 -10 -11 -10 -5 0 -7 6 -3 13 5 8 4 9 -4 2 -24 -24 -82 -146 -101
-215 -26 -92 -28 -257 -6 -345 37 -143 143 -304 256 -389 219 -165 500 -192
744 -72 403 199 517 717 235 1071 -78 98 -182 172 -316 224 -76 29 -213 47
-219 27z"/>
<path d="M2009 3001 c-1 -3 -1 -9 0 -13 0 -5 -6 -8 -15 -8 -8 0 -13 -4 -9 -9
3 -5 -3 -12 -12 -14 -17 -4 -17 -5 0 -6 9 0 25 7 35 17 9 9 23 17 30 18 47 4
48 4 32 14 -9 6 -17 5 -22 -3 -5 -8 -8 -8 -8 -1 0 11 -29 15 -31 5z"/>
</g>
</svg>
